<svg id="Layer_1" data-name="Layer 1" xmlns="http://www.w3.org/2000/svg" viewBox="0 0 174.01 38.69"><defs><style>.cls-1{fill:#003165;}.cls-2{fill:#fff;}.cls-3{fill:#008755;}</style></defs><rect class="cls-1" x="41.76" y="31.62" width="52.8" height="0.95"/><path class="cls-2" d="M19.34,1.68A17.67,17.67,0,1,0,37,19.34,17.66,17.66,0,0,0,19.34,1.68"/><path class="cls-3" d="M19.34,4.51A14.84,14.84,0,1,0,34.18,19.34,14.83,14.83,0,0,0,19.34,4.51"/><polygon class="cls-2" points="9.08 13.89 4.48 25.16 13.38 28.08 17.66 11.63 9.08 13.89"/><polygon class="cls-2" points="20.53 10.88 16.04 28.93 27.27 32.61 31.08 8.09 20.53 10.88"/><path class="cls-1" d="M19.34,0A19.35,19.35,0,1,0,38.69,19.34,19.34,19.34,0,0,0,19.34,0m0,2.19A17.15,17.15,0,1,1,2.19,19.34,17.15,17.15,0,0,1,19.34,2.19"/><path class="cls-1" d="M171.77,12.83a1.93,1.93,0,1,0,1.94,1.91,1.91,1.91,0,0,0-1.94-1.91m0,3.59a1.66,1.66,0,1,1,1.67-1.68,1.66,1.66,0,0,1-1.67,1.68"/><path class="cls-1" d="M172.62,15.33c0-.43-.08-.47-.23-.55a.53.53,0,0,0,.31-.51.62.62,0,0,0-.66-.62H171v2.14h.43V15h.46c.35,0,.35.11.35.39a1,1,0,0,0,0,.42h.51v0c-.12,0-.12-.12-.12-.43m-.7-.74h-.54V14h.54c.27,0,.31.16.31.27s-.08.28-.31.28"/><path class="cls-1" d="M41.78,26.08h9.47A2.68,2.68,0,0,1,51,24.94a7.59,7.59,0,0,1,.22-1.77L53.9,12.82h6.51l.82-3.19H54.72L55.17,8c.23-.91.55-1,2.37-1H60a4.71,4.71,0,0,1,2.55.55L63,3.71H53.76c-2.23,0-3.46.23-4.42.82C48,5.3,47.61,6,46.92,8.77l-.27.86H43l-.82,3.19h3.65l-2.41,9.43a9.76,9.76,0,0,1-1.64,3.83"/><path class="cls-1" d="M82,21.85l1.55-6.07a6.48,6.48,0,0,0,.27-1.91A4.78,4.78,0,0,0,83,11.18c-.91-1.14-2-1.55-4.1-1.55h-10a10.81,10.81,0,0,0-4.33.55,4.79,4.79,0,0,0-2.51,3.14l-1.87,7.29A5.87,5.87,0,0,0,60,22a4,4,0,0,0,1.46,3.19c.91.77,1.41.86,4,.86H75.4c2.6,0,3.69-.23,4.7-1s1.41-1.5,1.91-3.27M75.63,15.1,74,21.53c-.27,1.18-.59,1.41-2,1.41H69.53c-1,0-1.55-.28-1.55-1a4.5,4.5,0,0,1,.18-1l1.73-6.79c.32-1.09.68-1.41,2-1.41h2.23c1.19,0,1.73.32,1.73,1.14a3.74,3.74,0,0,1-.27,1.14"/><path class="cls-1" d="M101.65,15l1.41-5.38h-4.6c-2.46,0-3.42.59-4.6,2.78l.13-.86V10.41l.1-.78H86.52a3.08,3.08,0,0,1,.23,1.19,7.67,7.67,0,0,1-.23,1.77L84,22.25a9.31,9.31,0,0,1-1.65,3.83h9.48a2.62,2.62,0,0,1-.18-1.14,10.16,10.16,0,0,1,.18-1.77l2-7.61c.28-1.05.82-1.42,2.24-1.42h2.82a4.08,4.08,0,0,1,2.78.87"/><path class="cls-1" d="M120.15,9.63h-4.74a3.71,3.71,0,0,0-1.64.23,2,2,0,0,0-.73.64l.73-2.87,1-3.92h-8.84a2.56,2.56,0,0,1,.23,1.14,10.13,10.13,0,0,1-.23,1.78l-4,15.67a10,10,0,0,1-1.64,3.78H109l.36-1.5c.41,1.18,1,1.5,2.92,1.5h6c2.87,0,4.42-1.23,5.2-4.23l1.5-5.93a9.49,9.49,0,0,0,.32-2.14,3.79,3.79,0,0,0-1.46-3,5.06,5.06,0,0,0-3.69-1.1m-3,5.29-1.51,5.83c-.45,1.78-.68,2.14-1.91,2.19h-2.14c-1,0-1.5-.37-1.5-1a4.17,4.17,0,0,1,.13-.86L112,14.46c.37-1.36.64-1.64,1.78-1.64h2c1.13,0,1.64.37,1.64,1a4.06,4.06,0,0,1-.23,1.05"/><path class="cls-1" d="M143.43,22.94h-7.92a10.62,10.62,0,0,1-1.51-.09,1.11,1.11,0,0,1-.68-1c0-.14.09-.59.14-.91l.41-1.55h13.57l1.05-4.06a7.18,7.18,0,0,0,.23-1.64,3.8,3.8,0,0,0-1.28-3c-.91-.86-2-1.14-4.42-1.14H132.68c-2.92,0-4.6,1.19-5.24,3.69l-1.91,7.29a8,8,0,0,0-.14,1.37,4.08,4.08,0,0,0,1.37,3,5.26,5.26,0,0,0,3.78,1.14h14.4l1.41-3.51a7.94,7.94,0,0,1-2.92.37m-8.24-8.57c.36-1.32.63-1.55,1.91-1.55h2.51c.82,0,1.23.23,1.23.82,0,.09-.09.41-.14.73l-.5,1.91h-5.47Z"/><path class="cls-1" d="M158.79,23.8c.77,1.42.77,1.51.77,2.28h10.21a15.15,15.15,0,0,1-2.18-2.91L164,17.11l10-7.48h-5.83c-.14.37-.55.82-1.64,1.73l-4.2,3-1.13-2a5.32,5.32,0,0,1-.87-2.69H150.13c.64.5.73.64,1.55,2L156,19.06l-9.48,7h5.78c.14-.45.37-.68,1.23-1.37l4.06-3.09"/><path class="cls-1" d="M101.62,28.56a1.16,1.16,0,0,0-.79-.21H99.05c-.26,0-.33,0-.4.16a2.28,2.28,0,0,0-.11.41c0,.13.09.19.31.19h1.55a.79.79,0,0,1,.59.17.63.63,0,0,1,.22.51,1.28,1.28,0,0,1-.06.4l-.34,1.3c-.15.56-.23.68-.49.88s-.46.23-1.22.23H95.74l.15-1c.28.18.36.19.9.19h1.67c.27,0,.32,0,.39-.15a1.56,1.56,0,0,0,.1-.4c0-.13-.09-.18-.29-.18H97.21c-.62,0-.95-.24-.95-.7a2.16,2.16,0,0,1,.11-.59l.3-1.18a1.16,1.16,0,0,1,.55-.83,1.66,1.66,0,0,1,.93-.22h3.58"/><path class="cls-1" d="M106.28,32.88c-.16.63-.22.76-.45.93a1.39,1.39,0,0,1-1,.22h-3.67l.07-.81a2.21,2.21,0,0,0,.66.08h2c.35,0,.43-.06.51-.36l.15-.58c-.17.21-.25.24-.67.24H103l-.43,0a.93.93,0,0,1-.81-.94,2.22,2.22,0,0,1,.09-.54l.41-1.55c0-.08,0-.3,0-.4a.58.58,0,0,0,0-.27h2l-.67,2.6a.63.63,0,0,0,0,.22c0,.13.12.2.36.2h.46c.3,0,.39-.08.48-.42l.5-1.93a2.43,2.43,0,0,0,.05-.4.6.6,0,0,0-.06-.27h2"/><path class="cls-1" d="M110,29.2c.16-.29.24-.34.63-.34h1.23a1,1,0,0,1,.81.32,1.08,1.08,0,0,1,.24.64,2.82,2.82,0,0,1-.09.6l-.39,1.51a1.68,1.68,0,0,0-.05.4.68.68,0,0,0,.05.27h-2.16a2.14,2.14,0,0,0,.38-.87l.43-1.66a1.26,1.26,0,0,0,.06-.29c0-.09-.07-.16-.18-.19h-.62c-.29,0-.38.06-.46.35l-.51,2a2.46,2.46,0,0,0,0,.4.88.88,0,0,0,0,.27h-2.15a2.29,2.29,0,0,0,.38-.87l.56-2.2a1.83,1.83,0,0,0,.05-.4.58.58,0,0,0-.05-.27h1.93"/><path class="cls-1" d="M117.63,29.58h-1.48l-.49,1.9a.45.45,0,0,0,0,.11c0,.2.15.29.51.29h.49a1.65,1.65,0,0,0,.64-.12l-.22.84h-1.86c-.15,0-.42,0-.59,0a.89.89,0,0,1-.8-.9,1.8,1.8,0,0,1,0-.31l.47-1.78h-.77l.19-.72h.76l.19-.71,1.86-.11-.22.82h1.49"/><path class="cls-1" d="M120.36,29.07a.76.76,0,0,1,.64-.21h1c.5,0,.69.05.9.25a1,1,0,0,1,.32.71,1.58,1.58,0,0,1-.07.43l-.43,1.68a2.43,2.43,0,0,0-.05.4.71.71,0,0,0,.05.27h-2.15a2.14,2.14,0,0,0,.37-.87l.43-1.64a1.39,1.39,0,0,0,0-.24c0-.18-.12-.27-.38-.27h-.36c-.32,0-.41.08-.5.44l-.5,1.91a2.46,2.46,0,0,0,0,.4.88.88,0,0,0,0,.27h-2.15a2.36,2.36,0,0,0,.38-.87l.91-3.55a1.68,1.68,0,0,0,0-.4.68.68,0,0,0,0-.27h2"/><path class="cls-1" d="M128.13,32.6h-3.26a1.14,1.14,0,0,1-.86-.27.91.91,0,0,1-.32-.67,1.77,1.77,0,0,1,0-.3l.43-1.65a1.07,1.07,0,0,1,1.19-.85h2.34c.56,0,.8.06,1,.26a.85.85,0,0,1,.29.67,1.28,1.28,0,0,1-.05.38l-.24.93h-3.08l-.09.34c0,.07,0,.17,0,.21a.22.22,0,0,0,.15.2s0,0,.34,0h1.8a2,2,0,0,0,.67-.08m-1.41-1.43.12-.43c0-.07,0-.14,0-.16s-.09-.2-.28-.2h-.57c-.28,0-.35.06-.43.36l-.1.43Z"/><path class="cls-1" d="M133.51,29.58H132l-.49,1.9a.45.45,0,0,0,0,.11c0,.2.15.29.51.29h.48a1.66,1.66,0,0,0,.65-.12l-.23.84h-1.86c-.14,0-.41,0-.59,0a.9.9,0,0,1-.8-.9,1.88,1.88,0,0,1,0-.31l.47-1.78h-.77l.19-.72h.76l.19-.71,1.86-.11-.22.82h1.48"/><path class="cls-1" d="M135.56,31.93a1.68,1.68,0,0,0-.05.4.68.68,0,0,0,.05.27H133.4a2.29,2.29,0,0,0,.38-.87l.56-2.2a1.83,1.83,0,0,0,0-.4.58.58,0,0,0,0-.27h2m.09-.36h-1.83l.26-1h1.83Z"/><path class="cls-1" d="M141.18,29.71a1.05,1.05,0,0,0-.59-.13h-1.25c-.35,0-.43.07-.52.39l-.37,1.46a.82.82,0,0,0,0,.2c0,.18.14.25.51.25H140a1.6,1.6,0,0,0,.66-.1l-.34.82h-2.49a1.25,1.25,0,0,1-.9-.23.81.81,0,0,1-.33-.65,1.37,1.37,0,0,1,.07-.42l.4-1.56a1.13,1.13,0,0,1,.48-.72,1.5,1.5,0,0,1,.9-.16h2.85"/><path class="cls-1" d="M149.55,29.6a2.21,2.21,0,0,0-.36.87l-.38,1.46a1.68,1.68,0,0,0-.05.4.68.68,0,0,0,.05.27H147.2v-.47a.6.6,0,0,1-.7.47h-1.6a1.43,1.43,0,0,1-1-.2.93.93,0,0,1-.36-.73,1.86,1.86,0,0,1,.09-.52l.65-2.53a1.25,1.25,0,0,1,.67-.93c.39-.17.4-.17,1.47-.18h3.32l-.08,1a2.3,2.3,0,0,0-.88-.13h-1.95c-.42,0-.54.08-.62.4l-.67,2.57a.61.61,0,0,0,0,.19c0,.17.11.25.35.25h.65c.29,0,.36-.06.47-.49l.21-.83h-.48a1.76,1.76,0,0,0-.62.09l.25-.93"/><path class="cls-1" d="M152.11,29v.26l0,.19a1,1,0,0,1,1-.63h1l-.32,1.22a.92.92,0,0,0-.62-.19h-.64c-.33,0-.45.08-.51.32l-.45,1.72a2.46,2.46,0,0,0,0,.4.88.88,0,0,0,0,.27h-2.15a2.21,2.21,0,0,0,.37-.87l.57-2.2a1.83,1.83,0,0,0,.05-.4.74.74,0,0,0-.05-.27h1.72"/><path class="cls-1" d="M158.2,28.86a.86.86,0,0,1,.68.22,1.06,1.06,0,0,1,.32.72,2.9,2.9,0,0,1-.07.51l-.42,1.62a1.84,1.84,0,0,0-.06.4.55.55,0,0,0,.06.27H156.9a.64.64,0,0,1-.05-.28v-.09a.71.71,0,0,1-.72.37H155a1.22,1.22,0,0,1-.81-.24.88.88,0,0,1-.32-.67,1.22,1.22,0,0,1,.06-.35l.09-.36a1.1,1.1,0,0,1,.46-.74,1.31,1.31,0,0,1,.76-.14H157c.19,0,.2,0,.26-.05a.41.41,0,0,0,.1-.26c0-.16-.1-.2-.4-.2h-1.82a1.6,1.6,0,0,0-.79.14l.4-.87m1.48,1.95c-.3,0-.35,0-.42.31l-.1.38a.47.47,0,0,0,0,.15c0,.17.09.23.36.23h.45c.32,0,.35,0,.42-.27l.21-.8Z"/><path class="cls-1" d="M164.6,29.72a2.13,2.13,0,0,0-.92-.14h-1.57c-.18,0-.26.07-.26.2s.05.13.29.13h1.33a.77.77,0,0,1,.61.22.76.76,0,0,1,.24.53,2.1,2.1,0,0,1-.06.38l-.15.58a1.17,1.17,0,0,1-.43.74,1.55,1.55,0,0,1-1.07.24h-3.16l.08-.84a1.59,1.59,0,0,0,.39.09l.31,0H162a.24.24,0,0,0,.27-.27c0-.1,0-.12-.19-.12H161a1.34,1.34,0,0,1-.84-.16.8.8,0,0,1-.31-.64.85.85,0,0,1,0-.23l.19-.76a1.22,1.22,0,0,1,.47-.69,1.58,1.58,0,0,1,.78-.15h3.32"/><path class="cls-1" d="M169.74,29.72a2.08,2.08,0,0,0-.91-.14h-1.57c-.18,0-.26.07-.26.2s0,.13.29.13h1.32a.77.77,0,0,1,.61.22.76.76,0,0,1,.24.53,2,2,0,0,1-.05.38l-.15.58a1.17,1.17,0,0,1-.44.74,1.5,1.5,0,0,1-1.06.24h-3.17l.09-.84a1.53,1.53,0,0,0,.38.09l.32,0h1.79a.25.25,0,0,0,.28-.27c0-.1,0-.12-.19-.12h-1.11a1.34,1.34,0,0,1-.84-.16.77.77,0,0,1-.31-.64.58.58,0,0,1,0-.23l.19-.76a1.17,1.17,0,0,1,.46-.69,1.63,1.63,0,0,1,.79-.15h3.31"/></svg>